<?xml version="1.0" encoding="utf-8"?>
<!-- Generator: Adobe Illustrator 19.0.0, SVG Export Plug-In . SVG Version: 6.00 Build 0)  -->
<svg version="1.1" id="Layer_1" xmlns="http://www.w3.org/2000/svg" xmlns:xlink="http://www.w3.org/1999/xlink" x="0px" y="0px"
	 viewBox="0 0 30 30" style="enable-background:new 0 0 30 30;" xml:space="preserve">
<g>
	<path d="M30,0H0V30H30V0z
		 M22.8,15.9l-8,5c-0.2,0.1-0.3,0.1-0.5,0c-0.2-0.1-0.3-0.3-0.3-0.4v-3.1l-6.3,3.6C7.7,21,7.6,21,7.5,21c-0.1,0-0.2,0-0.3-0.1
		C7.1,20.8,7,20.7,7,20.5v-11c0-0.2,0.1-0.3,0.2-0.4C7.4,9,7.6,9,7.7,9.1l6.3,3.6V9.5c0-0.2,0.1-0.4,0.3-0.4c0.2-0.1,0.4-0.1,0.5,0
		l8,6c0.1,0.1,0.2,0.3,0.2,0.4C23,15.7,22.9,15.8,22.8,15.9z"/>
</g>
</svg>
