<?xml version="1.0" encoding="utf-8"?>
<!-- Generator: Adobe Illustrator 19.0.0, SVG Export Plug-In . SVG Version: 6.00 Build 0)  -->
<svg version="1.1" id="Layer_1" xmlns="http://www.w3.org/2000/svg" xmlns:xlink="http://www.w3.org/1999/xlink" x="0px" y="0px"
	 viewBox="0 0 30 30" style="enable-background:new 0 0 30 30;" xml:space="preserve">
<g>
	<path d="M30,0H0V30H30V0z M20,20.5
		c0,0.3-0.2,0.5-0.5,0.5S19,20.8,19,20.5v-4.2l-8.3,4.6c-0.1,0-0.2,0.1-0.2,0.1c-0.1,0-0.2,0-0.3-0.1c-0.2-0.1-0.2-0.3-0.2-0.4v-11
		c0-0.2,0.1-0.4,0.3-0.4c0.2-0.1,0.4-0.1,0.5,0l8.2,5.5V9.5C19,9.2,19.2,9,19.5,9S20,9.2,20,9.5V20.5z"/>
</g>
</svg>
