<?xml version="1.0" encoding="utf-8"?>
<!-- Generator: Adobe Illustrator 19.0.0, SVG Export Plug-In . SVG Version: 6.00 Build 0)  -->
<svg version="1.1" id="Layer_1" xmlns="http://www.w3.org/2000/svg" xmlns:xlink="http://www.w3.org/1999/xlink" x="0px" y="0px"
	 viewBox="0 0 30 30" style="enable-background:new 0 0 30 30;" xml:space="preserve">
<g>
	<path d="M30,0H0V30H30V0z M14,20.5
		c0,0.3-0.2,0.5-0.5,0.5h-4C9.2,21,9,20.8,9,20.5v-11C9,9.2,9.2,9,9.5,9h4C13.8,9,14,9.2,14,9.5V20.5z M21,20.5
		c0,0.3-0.2,0.5-0.5,0.5h-4c-0.3,0-0.5-0.2-0.5-0.5v-11C16,9.2,16.2,9,16.5,9h4C20.8,9,21,9.2,21,9.5V20.5z"/>
</g>
</svg>
