<?xml version="1.0" encoding="utf-8"?>
<!-- Generator: Adobe Illustrator 19.0.0, SVG Export Plug-In . SVG Version: 6.00 Build 0)  -->
<svg version="1.1" id="Layer_1" xmlns="http://www.w3.org/2000/svg" xmlns:xlink="http://www.w3.org/1999/xlink" x="0px" y="0px"
	 viewBox="0 0 30 30" style="enable-background:new 0 0 30 30;" xml:space="preserve">
<g>
	<path d="M30,0H0V30H30V0z M20,20.5
		c0,0.2-0.1,0.4-0.3,0.4c-0.1,0-0.2,0.1-0.2,0.1c-0.1,0-0.2,0-0.3-0.1L11,15.4v5.1c0,0.3-0.2,0.5-0.5,0.5S10,20.8,10,20.5v-11
		C10,9.2,10.2,9,10.5,9S11,9.2,11,9.5v4.2l8.3-4.6c0.2-0.1,0.3-0.1,0.5,0S20,9.3,20,9.5V20.5z"/>
</g>
</svg>
