<?xml version="1.0" encoding="utf-8"?>
<!-- Generator: Adobe Illustrator 16.2.0, SVG Export Plug-In . SVG Version: 6.00 Build 0)  -->
<!DOCTYPE svg PUBLIC "-//W3C//DTD SVG 1.1//EN" "http://www.w3.org/Graphics/SVG/1.1/DTD/svg11.dtd">
<svg version="1.1" id="Слой_1" xmlns="http://www.w3.org/2000/svg" xmlns:xlink="http://www.w3.org/1999/xlink" x="0px" y="0px"
	 width="419.808px" height="133.991px" viewBox="0 0 419.808 133.991" enable-background="new 0 0 419.808 133.991"
	 xml:space="preserve">
<g>
	<rect fill="none" width="436" height="201.352"/>
	<path opacity="0.53" fill="#00573A" d="M2.86,127.05v-95.7h33.11c5.646,0.148,10.907,1.688,15.785,4.62
		c4.876,2.934,8.745,6.82,11.605,11.66c2.786,4.988,4.18,10.34,4.18,16.06c0,5.868-1.43,11.275-4.29,16.225
		S56.466,88.77,51.48,91.63c-4.914,2.934-10.34,4.4-16.28,4.4c-7.334,0-13.788-2.126-19.36-6.38v37.4H2.86z M15.84,44.33v19.36
		c0,2.568,0.495,5.043,1.485,7.425c0.99,2.384,2.401,4.493,4.235,6.325c1.832,1.834,3.922,3.228,6.27,4.18
		c2.346,0.954,4.802,1.43,7.37,1.43c2.566,0,5.022-0.476,7.37-1.43c2.346-0.952,4.436-2.346,6.27-4.18
		c3.813-4.032,5.72-8.616,5.72-13.75c0-2.566-0.495-5.022-1.485-7.37c-0.99-2.346-2.403-4.436-4.235-6.27
		c-1.834-1.832-3.924-3.245-6.27-4.235c-2.348-0.99-4.804-1.485-7.37-1.485H15.84z"/>
	<path opacity="0.53" fill="#00573A" d="M120.613,34.87c4.95,2.934,8.891,6.93,11.825,11.99c2.86,5.134,4.29,10.744,4.29,16.83v0.11
		c0,6.088-1.43,11.66-4.29,16.72c-2.86,5.06-6.784,9.094-11.77,12.1c-4.988,3.008-10.45,4.51-16.39,4.51
		c-5.868,0-11.294-1.466-16.28-4.4c-4.988-2.932-8.91-6.966-11.77-12.1c-2.934-4.986-4.4-10.596-4.4-16.83v-0.11
		c0-6.086,1.43-11.677,4.29-16.775c2.86-5.096,6.82-9.111,11.88-12.045c4.913-2.932,10.376-4.4,16.39-4.4
		C110.254,30.47,115.663,31.938,120.613,34.87z M124.078,63.8c0-6.012-1.944-10.962-5.83-14.85c-3.888-3.886-8.544-5.83-13.97-5.83
		c-5.428,0-10.084,1.944-13.97,5.83c-3.814,3.813-5.72,8.764-5.72,14.85c0,6.088,1.906,11.038,5.72,14.85
		c1.833,1.834,3.96,3.245,6.38,4.235c2.42,0.99,4.95,1.485,7.59,1.485s5.17-0.495,7.59-1.485c2.42-0.99,4.546-2.401,6.38-4.235
		C122.134,74.764,124.078,69.814,124.078,63.8z"/>
	<path opacity="0.53" fill="#00573A" d="M205.368,0v96.25h-33.11c-5.647-0.146-10.89-1.741-15.73-4.785
		c-4.84-3.042-8.69-7.131-11.55-12.265c-2.86-4.986-4.29-10.376-4.29-16.17c0-5.866,1.447-11.275,4.345-16.225
		c2.896-4.95,6.837-8.891,11.825-11.825c4.986-2.86,10.376-4.29,16.17-4.29c3.52,0,6.947,0.569,10.285,1.705
		c3.336,1.138,6.361,2.733,9.075,4.785V0H205.368z M192.388,83.27V63.03c0-2.566-0.495-5.022-1.485-7.37
		c-0.99-2.346-2.403-4.436-4.235-6.27c-1.834-1.833-3.924-3.245-6.27-4.235c-2.348-0.99-4.804-1.485-7.37-1.485
		c-2.568,0-5.024,0.495-7.37,1.485c-2.348,0.99-4.438,2.403-6.27,4.235c-1.833,1.834-3.245,3.924-4.235,6.27
		c-0.99,2.348-1.485,4.804-1.485,7.37c0,2.714,0.512,5.373,1.54,7.975c1.026,2.604,2.42,4.785,4.18,6.545
		c1.833,1.834,3.922,3.245,6.27,4.235c2.346,0.99,4.802,1.485,7.37,1.485H192.388z"/>
	<path opacity="0.53" fill="#00573A" d="M259.542,34.87c4.95,2.934,8.892,6.93,11.825,11.99c2.859,5.134,4.289,10.744,4.289,16.83
		v0.11c0,6.088-1.43,11.66-4.289,16.72c-2.86,5.06-6.784,9.094-11.77,12.1c-4.988,3.008-10.451,4.51-16.391,4.51
		c-5.867,0-11.294-1.466-16.28-4.4c-4.987-2.932-8.91-6.966-11.77-12.1c-2.934-4.986-4.4-10.596-4.4-16.83v-0.11
		c0-6.086,1.43-11.677,4.29-16.775c2.86-5.096,6.82-9.111,11.88-12.045c4.913-2.932,10.376-4.4,16.39-4.4
		C249.184,30.47,254.592,31.938,259.542,34.87z M263.007,63.8c0-6.012-1.944-10.962-5.83-14.85c-3.888-3.886-8.544-5.83-13.97-5.83
		c-5.428,0-10.084,1.944-13.971,5.83c-3.813,3.813-5.719,8.764-5.719,14.85c0,6.088,1.905,11.038,5.719,14.85
		c1.833,1.834,3.961,3.245,6.381,4.235c2.42,0.99,4.949,1.485,7.59,1.485s5.17-0.495,7.59-1.485c2.42-0.99,4.547-2.401,6.38-4.235
		C261.063,74.764,263.007,69.814,263.007,63.8z"/>
	<path opacity="0.53" fill="#00573A" d="M329.722,35.86c4.95,2.86,8.892,6.784,11.825,11.77c2.859,4.914,4.289,10.34,4.289,16.28
		c0,5.868-1.43,11.275-4.289,16.225c-2.86,4.95-6.784,8.855-11.77,11.715c-4.914,2.934-10.341,4.4-16.281,4.4h-32.34V0h12.98v38.06
		c2.712-2.052,5.737-3.647,9.074-4.785c3.337-1.136,6.766-1.705,10.285-1.705C319.363,31.57,324.771,33,329.722,35.86z
		 M331.371,71.28c0.99-2.346,1.485-4.802,1.485-7.37c0-2.566-0.495-5.022-1.485-7.37c-0.989-2.346-2.402-4.436-4.234-6.27
		c-1.834-1.832-3.924-3.245-6.27-4.235c-2.348-0.99-4.805-1.485-7.371-1.485c-2.567,0-5.023,0.495-7.369,1.485
		c-2.348,0.99-4.438,2.403-6.271,4.235c-1.833,1.834-3.245,3.924-4.235,6.27c-0.989,2.348-1.484,4.804-1.484,7.37v19.36h19.359
		c2.566,0,5.023-0.495,7.371-1.485c2.346-0.99,4.436-2.401,6.27-4.235C328.969,75.718,330.382,73.628,331.371,71.28z"/>
	<path opacity="0.53" fill="#00573A" d="M415.135,31.35v64.9h-33.109c-5.72-0.146-11.019-1.686-15.895-4.62
		c-4.878-2.932-8.745-6.856-11.605-11.77c-2.859-4.986-4.289-10.34-4.289-16.06c0-5.866,1.446-11.292,4.344-16.28
		c2.896-4.986,6.838-8.946,11.826-11.88c4.985-2.86,10.412-4.29,16.279-4.29c3.592,0,7.057,0.55,10.395,1.65
		c3.336,1.1,6.361,2.678,9.076,4.73v-6.38H415.135z M402.156,63.8c0-2.566-0.496-5.041-1.486-7.425
		c-0.989-2.382-2.402-4.491-4.234-6.325c-1.834-1.832-3.943-3.245-6.324-4.235c-2.385-0.99-4.859-1.485-7.426-1.485
		c-5.134,0-9.718,1.908-13.75,5.72c-1.834,1.834-3.228,3.943-4.18,6.325c-0.954,2.384-1.43,4.859-1.43,7.425
		c0,5.208,1.869,9.79,5.609,13.75c3.96,3.74,8.543,5.61,13.75,5.61h19.471V63.8z"/>
</g>
<g>
</g>
<g>
</g>
<g>
</g>
<g>
</g>
<g>
</g>
<g>
</g>
<g>
</g>
<g>
</g>
<g>
</g>
<g>
</g>
<g>
</g>
<g>
</g>
<g>
</g>
<g>
</g>
<g>
</g>
</svg>
